<svg width="72" height="72" viewBox="0 0 72 72" fill="none" xmlns="http://www.w3.org/2000/svg">
<path d="M34.5368 51.6266C35.1475 52.2378 36.1383 52.2378 36.7499 51.6266C37.3611 51.0159 37.3611 50.0247 36.7499 49.4135L24.8973 37.5609H56.3894C57.2563 37.5609 57.9594 36.8578 57.9594 35.9909C57.9594 35.1236 57.2563 34.4209 56.3894 34.4209H24.913L36.7656 22.5683C37.0597 22.2753 37.2249 21.8765 37.2249 21.4615C37.2249 21.0461 37.0597 20.6483 36.7656 20.3547C36.4716 20.0583 36.0689 19.894 35.651 19.8994C35.2345 19.9014 34.8348 20.0646 34.5368 20.3547L20.0153 34.8758C19.7198 35.1718 19.5551 35.5735 19.5595 35.9909C19.5625 36.4074 19.7257 36.8056 20.0153 37.1051L34.5368 51.6266Z" fill="black"/>
<path d="M35.9809 69.7431C49.6326 69.7455 61.9411 61.5225 67.1653 48.9098C72.3885 36.2965 69.4993 21.7789 59.843 12.1285C46.6638 -1.05066 25.297 -1.05066 12.1183 12.1285C-1.06042 25.3068 -1.06042 46.6736 12.1183 59.8528C18.433 66.2034 27.0253 69.7647 35.9809 69.7431ZM35.9809 5.37767C52.8571 5.37767 66.5934 19.1144 66.5934 35.9907C66.5934 52.8669 52.8571 66.6031 35.9809 66.6031C19.1047 66.6031 5.36791 52.8669 5.36791 35.9907C5.36791 19.1144 19.1047 5.37767 35.9809 5.37767Z" fill="black"/>
</svg>
