<svg width="40" height="40" viewBox="0 0 40 40" fill="none" xmlns="http://www.w3.org/2000/svg">
<path d="M19.1871 28.6814C19.5263 29.0209 20.0767 29.0209 20.4165 28.6814C20.7561 28.3421 20.7561 27.7914 20.4165 27.4519L13.8317 20.8671H31.3274C31.809 20.8671 32.1996 20.4765 32.1996 19.9949C32.1996 19.513 31.809 19.1227 31.3274 19.1227H13.8405L20.4253 12.5379C20.5886 12.3751 20.6804 12.1536 20.6804 11.923C20.6804 11.6922 20.5886 11.4712 20.4253 11.3081C20.2619 11.1434 20.0382 11.0522 19.806 11.0552C19.5747 11.0563 19.3526 11.147 19.1871 11.3081L11.1195 19.3754C10.9554 19.5398 10.8639 19.763 10.8663 19.9949C10.868 20.2263 10.9586 20.4475 11.1195 20.6139L19.1871 28.6814Z" fill="black"/>
<path d="M19.9893 38.746C27.5736 38.7474 34.4116 34.1791 37.314 27.172C40.2158 20.1646 38.6107 12.0993 33.2461 6.73797C25.9243 -0.583813 14.0538 -0.583813 6.73233 6.73797C-0.589176 14.0592 -0.589176 25.9296 6.73233 33.2514C10.2405 36.7796 15.014 38.7581 19.9893 38.746ZM19.9893 2.98748C29.365 2.98748 36.9963 10.619 36.9963 19.9947C36.9963 29.3704 29.365 37.0016 19.9893 37.0016C10.6137 37.0016 2.98212 29.3704 2.98212 19.9947C2.98212 10.619 10.6137 2.98748 19.9893 2.98748Z" fill="black"/>
</svg>
