<svg width="40" height="40" viewBox="0 0 40 40" fill="none" xmlns="http://www.w3.org/2000/svg">
<path d="M20.8129 11.3186C20.4736 10.9791 19.9232 10.9791 19.5834 11.3186C19.2439 11.6579 19.2439 12.2086 19.5834 12.5481L26.1682 19.1329H8.67255C8.19097 19.1329 7.80035 19.5235 7.80035 20.0051C7.80035 20.487 8.19097 20.8773 8.67255 20.8773H26.1595L19.5747 27.4621C19.4113 27.6249 19.3195 27.8464 19.3195 28.077C19.3195 28.3078 19.4113 28.5288 19.5747 28.6919C19.738 28.8566 19.9617 28.9478 20.1939 28.9448C20.4253 28.9437 20.6474 28.853 20.8129 28.6919L28.8804 20.6246C29.0446 20.4602 29.1361 20.237 29.1336 20.0051C29.132 19.7737 29.0413 19.5525 28.8804 19.3861L20.8129 11.3186Z" fill="black"/>
<path d="M20.0106 1.25396C12.4263 1.25259 5.58831 5.82092 2.68598 12.828C-0.215797 19.8354 1.38929 27.9007 6.75388 33.262C14.0757 40.5838 25.9461 40.5838 33.2676 33.262C40.5891 25.9408 40.5891 14.0704 33.2676 6.74857C29.7594 3.22044 24.986 1.24194 20.0106 1.25396ZM20.0106 37.0125C10.6349 37.0125 3.00367 29.381 3.00367 20.0053C3.00367 10.6296 10.6349 2.99836 20.0106 2.99836C29.3863 2.99836 37.0178 10.6296 37.0178 20.0053C37.0178 29.381 29.3863 37.0125 20.0106 37.0125Z" fill="black"/>
</svg>
