<svg width="72" height="72" viewBox="0 0 72 72" fill="none" xmlns="http://www.w3.org/2000/svg">
<path d="M37.4631 20.3734C36.8524 19.7622 35.8617 19.7622 35.25 20.3734C34.6388 20.9841 34.6388 21.9753 35.25 22.5865L47.1026 34.4391H15.6105C14.7436 34.4391 14.0405 35.1422 14.0405 36.0091C14.0405 36.8764 14.7436 37.5791 15.6105 37.5791H47.0869L35.2343 49.4317C34.9402 49.7247 34.775 50.1235 34.775 50.5385C34.775 50.9539 34.9402 51.3517 35.2343 51.6453C35.5283 51.9417 35.931 52.106 36.3489 52.1006C36.7654 52.0986 37.1651 51.9354 37.4631 51.6453L51.9846 37.1242C52.2801 36.8282 52.4448 36.4265 52.4404 36.0091C52.4375 35.5926 52.2742 35.1944 51.9846 34.8949L37.4631 20.3734Z" fill="black"/>
<path d="M36.019 2.25693C22.3673 2.25448 10.0588 10.4775 4.83466 23.0902C-0.388548 35.7035 2.50061 50.2211 12.1569 59.8715C25.3361 73.0507 46.7029 73.0507 59.8816 59.8715C73.0603 46.6932 73.0603 25.3264 59.8816 12.1472C53.5669 5.7966 44.9746 2.2353 36.019 2.25693ZM36.019 66.6223C19.1428 66.6223 5.40649 52.8856 5.40649 36.0093C5.40649 19.1331 19.1428 5.39685 36.019 5.39685C52.8952 5.39685 66.632 19.1331 66.632 36.0093C66.632 52.8856 52.8952 66.6223 36.019 66.6223Z" fill="black"/>
</svg>
