<svg width="21" height="21" viewBox="0 0 21 21" fill="none" xmlns="http://www.w3.org/2000/svg">
<g clip-path="url(#clip0)">
<path d="M4.82132 9.625H0.446303C0.204803 9.625 0.00878906 9.82101 0.00878906 10.0625V20.5625C0.00878906 20.804 0.204803 21 0.446303 21H4.82132C5.06282 21 5.25883 20.804 5.25883 20.5625V10.0625C5.25879 9.82097 5.06368 9.625 4.82132 9.625Z" fill="black"/>
<path d="M12.6787 0H8.30372C8.06222 0 7.86621 0.196014 7.86621 0.437514V20.5625C7.86621 20.804 8.06222 21 8.30372 21H12.6787C12.9202 21 13.1163 20.804 13.1163 20.5625V0.437514C13.1163 0.196014 12.9202 0 12.6787 0Z" fill="black"/>
<path d="M20.5537 4.375H16.1787C15.9372 4.375 15.7412 4.57101 15.7412 4.81251V20.5625C15.7412 20.804 15.9372 21 16.1787 21H20.5537C20.7952 21 20.9913 20.804 20.9913 20.5625V4.81251C20.9913 4.57097 20.7952 4.375 20.5537 4.375Z" fill="black"/>
</g>
<defs>
<clipPath id="clip0">
<rect width="21" height="21" fill="white"/>
</clipPath>
</defs>
</svg>
