<svg width="117" height="117" viewBox="0 0 117 117" fill="none" xmlns="http://www.w3.org/2000/svg">
<g clip-path="url(#clip0)">
<path d="M60.2277 79.0743V78.6185C57.8981 78.5932 55.6698 78.4666 53.5174 78.2893C52.3526 81.3026 50.7066 84.1134 48.6555 86.6203C52.5298 87.2533 56.4547 87.6079 60.3797 87.6585L60.2277 79.0743Z" fill="white"/>
<path d="M49.9722 62.311C48.0984 53.347 41.4893 46.0542 32.7025 43.2941C30.2716 42.5598 27.7647 42.1799 25.2325 42.1799C18.9526 42.2053 12.8753 44.5349 8.24131 48.7384C-2.06481 58.1076 -2.79915 74.0859 6.57005 84.392C15.9392 94.6981 31.9175 95.4324 42.2236 86.0632C47.4906 81.2773 50.504 74.5163 50.4787 67.4008C50.4787 65.7042 50.3014 63.9823 49.9722 62.311ZM25.2325 64.0076C29.5119 64.0076 33.2849 66.8437 34.4497 70.9712C35.8678 76.061 32.9304 81.328 27.8153 82.7713V84.9997C27.8153 86.3924 26.6758 87.5319 25.2831 87.5319C23.8904 87.5319 22.7509 86.3924 22.7509 84.9997V82.7967C18.5727 81.6572 15.686 77.8842 15.6607 73.5541C15.6607 72.1614 16.8002 71.0219 18.1929 71.0219C19.5856 71.0219 20.7251 72.1614 20.7251 73.5541C20.7251 76.0357 22.7509 78.0361 25.2325 78.0361C27.714 78.0361 29.7145 76.0103 29.7145 73.5288C29.7145 71.0472 27.6887 69.0467 25.2072 69.0467C20.8771 69.0467 17.1041 66.1347 15.9899 61.9565C14.6478 56.8921 17.6865 51.6251 22.7762 50.2577V49.1688C22.7762 47.7761 23.9157 46.6366 25.3084 46.6366C26.7012 46.6366 27.8407 47.7761 27.8407 49.1688V50.3083C31.9682 51.4732 34.8042 55.2462 34.8042 59.5256C34.8042 60.9183 33.6647 62.0578 32.272 62.0578C30.8793 62.0578 29.7398 60.9183 29.7398 59.5256C29.7398 57.044 27.714 55.0183 25.2325 55.0183C22.7509 55.0183 20.7505 57.0187 20.7251 59.5256C20.7251 62.0072 22.7509 64.0076 25.2325 64.0076Z" fill="white"/>
<path d="M60.1518 73.5287L59.9999 64.5647C58.4299 64.5394 56.8852 64.4887 55.4165 64.3875C55.4925 65.4003 55.5432 66.3879 55.5432 67.3755C55.5432 69.3506 55.3406 71.351 54.9608 73.3008C56.632 73.4528 58.3792 73.5287 60.1518 73.5287Z" fill="white"/>
<path d="M87.8795 31.6206C86.1323 32.5322 84.2838 33.2665 82.3846 33.8236C76.6871 35.5455 69.2171 36.4825 61.4179 36.4825C53.9478 36.4825 46.8323 35.6215 41.3374 34.0262C39.4382 33.5198 37.615 32.8107 35.8678 31.9245L36.0451 39.0653C38.9065 40.1289 41.5653 41.6482 43.9709 43.5473C44.0469 43.5727 44.0975 43.5727 44.1735 43.598C49.0353 44.8388 55.1633 45.4972 61.4179 45.4972C68.66 45.4972 75.7755 44.5856 80.9159 43.0409C86.4108 41.3696 87.6263 39.6224 87.6263 39.2932C87.6263 38.9387 87.601 38.6095 87.8795 38.255V31.6206Z" fill="white"/>
<path d="M80.8906 21.5676C75.7502 19.9976 68.6347 19.1113 61.3926 19.1113C54.0998 19.1113 47.2628 19.9976 42.1477 21.5676C36.8048 23.1882 35.6399 24.7835 35.6146 25.2899C35.6146 25.2899 35.6399 25.2899 35.6399 25.3406C35.7666 25.8977 37.2859 27.6196 42.7301 29.1895C47.7693 30.6582 54.4037 31.4685 61.3926 31.4685C68.6347 31.4685 75.7249 30.5823 80.8653 29.0376C86.3602 27.3917 87.601 25.6444 87.601 25.2899C87.601 24.9607 86.3855 23.2388 80.8906 21.5676Z" fill="white"/>
<path d="M116.949 91.634V84.0374C115.253 84.8983 113.48 85.6326 111.632 86.1897C105.96 87.9116 98.5401 88.8486 90.7156 88.8486C83.7773 88.8486 77.0163 88.0636 71.6986 86.6709C69.5209 86.1138 67.4192 85.3541 65.3934 84.3665L65.52 91.71C65.52 91.7353 65.52 91.7353 65.52 91.7606C65.52 92.1404 66.6342 93.837 71.9772 95.483C77.0416 97.0276 83.8786 97.8886 91.1967 97.8886C98.4895 97.8886 105.352 97.0023 110.467 95.407C115.81 93.7357 116.975 91.9885 116.975 91.634H116.949Z" fill="white"/>
<path d="M87.8289 45.7502C86.0817 46.6365 84.2585 47.3709 82.3593 47.9279C76.6618 49.6499 69.1918 50.5868 61.3672 50.5868C57.5183 50.5868 53.6946 50.3336 49.8963 49.8524C51.9474 52.6885 53.4667 55.8791 54.429 59.2723C56.6067 59.4242 58.9616 59.5255 61.3926 59.5255C61.4685 59.5255 61.5698 59.5255 61.6458 59.5255C65.7986 54.9675 76.9657 52.6885 87.8289 52.3847V45.7502Z" fill="white"/>
<path d="M111.454 72.1866C105.808 73.8578 98.4642 74.7694 90.7663 74.7694C83.2963 74.7694 76.1807 73.9085 70.6858 72.3132C68.7867 71.7814 66.9381 71.0724 65.1656 70.1861L65.2669 76.0102L65.2922 78.1373C67.2673 80.5935 76.7125 83.7588 90.741 83.7588C98.0591 83.7588 104.972 82.8978 110.163 81.3279C115.633 79.6566 116.823 77.9347 116.823 77.5802C116.823 77.3016 116.975 76.9978 116.975 76.7445H117V70.0342C115.227 70.9205 113.379 71.6801 111.454 72.1866Z" fill="white"/>
<path d="M110.264 59.9054C105.099 58.3354 98.0084 57.4998 90.7662 57.4998H90.3358C83.6001 57.4998 77.1936 58.2594 72.2811 59.6521C67.0394 61.1208 65.2415 62.7921 65.0136 63.4758C64.9883 63.5264 64.9883 63.5517 64.9883 63.5771C64.9883 63.5771 64.9883 63.5771 65.0389 63.6784C65.1909 64.2101 66.6849 65.932 72.1291 67.5273C77.1682 68.9707 83.8026 69.781 90.7916 69.781C98.0084 69.781 104.845 68.9454 110.036 67.4007C115.658 65.7295 116.924 63.9822 116.949 63.6024V63.5771C116.924 63.1972 115.658 61.526 110.264 59.9054Z" fill="white"/>
</g>
<defs>
<clipPath id="clip0">
<rect width="117" height="117" fill="white"/>
</clipPath>
</defs>
</svg>
