<svg width="27" height="28" viewBox="0 0 27 28" fill="none" xmlns="http://www.w3.org/2000/svg">
<g clip-path="url(#clip0)">
<path d="M26.9736 8.23208C26.9103 6.74433 26.6783 5.72152 26.346 4.83523C26.0031 3.89447 25.4757 3.0522 24.7847 2.35202C24.1095 1.64095 23.2919 1.08841 22.3953 0.738425C21.5357 0.393784 20.5546 0.153198 19.12 0.0876025C17.6746 0.0164522 17.2158 0 13.5501 0C9.8843 0 9.42546 0.0164522 7.98549 0.0820473C6.55088 0.147642 5.5646 0.388443 4.71017 0.73287C3.8028 1.08841 2.99062 1.63539 2.31544 2.35202C1.62976 3.0522 1.09717 3.90002 0.759477 4.82989C0.427145 5.72152 0.195151 6.73877 0.131898 8.22652C0.0632889 9.72538 0.0474243 10.2012 0.0474243 14.0027C0.0474243 17.8043 0.0632889 18.2801 0.126541 19.7734C0.189794 21.2611 0.421994 22.284 0.754326 23.1702C1.09717 24.111 1.62976 24.9533 2.31544 25.6534C2.99062 26.3645 3.80816 26.9171 4.70482 27.267C5.5646 27.6117 6.54552 27.8523 7.98034 27.9179C9.42011 27.9837 9.87915 27.9999 13.5449 27.9999C17.2107 27.9999 17.6695 27.9837 19.1095 27.9179C20.5441 27.8523 21.5304 27.6117 22.3848 27.267C24.1993 26.5395 25.6339 25.0518 26.3355 23.1702C26.6676 22.2786 26.8998 21.2611 26.9631 19.7734C27.0263 18.2801 27.0422 17.8043 27.0422 14.0027C27.0422 10.2012 27.0368 9.72538 26.9736 8.23208ZM24.5422 19.664C24.4841 21.0315 24.2626 21.7699 24.078 22.2622C23.6243 23.482 22.6907 24.4501 21.5145 24.9206C21.0398 25.112 20.3226 25.3417 19.0091 25.4017C17.585 25.4676 17.1579 25.4838 13.5554 25.4838C9.95291 25.4838 9.52044 25.4676 8.10149 25.4017C6.78287 25.3417 6.07082 25.112 5.59612 24.9206C5.01078 24.6962 4.47797 24.3407 4.04551 23.8758C3.59718 23.4217 3.25434 22.8747 3.038 22.2677C2.8534 21.7754 2.63191 21.0315 2.57402 19.6696C2.51056 18.1927 2.4949 17.7496 2.4949 14.0136C2.4949 10.2777 2.51056 9.82922 2.57402 8.35792C2.63191 6.99047 2.8534 6.25204 3.038 5.75976C3.25434 5.15253 3.59718 4.6002 4.05087 4.15151C4.48848 3.68657 5.01593 3.33103 5.60148 3.1069C6.07618 2.91546 6.79359 2.68577 8.10685 2.62551C9.53095 2.55992 9.95827 2.54347 13.5606 2.54347C17.1684 2.54347 17.5955 2.55992 19.0145 2.62551C20.3331 2.68577 21.0452 2.91546 21.5199 3.1069C22.1052 3.33103 22.638 3.68657 23.0705 4.15151C23.5188 4.60554 23.8616 5.15253 24.078 5.75976C24.2626 6.25204 24.4841 6.99581 24.5422 8.35792C24.6054 9.83478 24.6213 10.2777 24.6213 14.0136C24.6213 17.7496 24.6054 18.1871 24.5422 19.664Z" fill="black" fill-opacity="0.85"/>
<path d="M13.5501 6.80957C9.72092 6.80957 6.61414 10.0312 6.61414 14.0024C6.61414 17.9736 9.72092 21.1952 13.5501 21.1952C17.3794 21.1952 20.486 17.9736 20.486 14.0024C20.486 10.0312 17.3794 6.80957 13.5501 6.80957ZM13.5501 18.6682C11.0659 18.6682 9.0509 16.5788 9.0509 14.0024C9.0509 11.426 11.0659 9.33658 13.5501 9.33658C16.0344 9.33658 18.0492 11.426 18.0492 14.0024C18.0492 16.5788 16.0344 18.6682 13.5501 18.6682Z" fill="black" fill-opacity="0.85"/>
<path d="M22.3796 6.52587C22.3796 7.45318 21.6545 8.20507 20.7602 8.20507C19.866 8.20507 19.1409 7.45318 19.1409 6.52587C19.1409 5.59835 19.866 4.84668 20.7602 4.84668C21.6545 4.84668 22.3796 5.59835 22.3796 6.52587Z" fill="black" fill-opacity="0.85"/>
</g>
<defs>
<clipPath id="clip0">
<rect width="27" height="28" fill="white"/>
</clipPath>
</defs>
</svg>
