<svg width="117" height="117" viewBox="0 0 117 117" fill="none" xmlns="http://www.w3.org/2000/svg">
<g clip-path="url(#clip0)">
<path d="M116.667 80.2272C115.646 77.0172 112.088 74.1791 106.689 75.5337C106.676 75.5371 106.663 75.5403 106.651 75.5438L84.0875 81.6259C83.2737 78.0819 79.8741 75.65 76.1809 76.1084C74.8763 76.2704 70.4625 76.8977 65.7891 77.5618C61.3372 78.1945 56.7336 78.8485 55.468 79.0058C52.6793 79.3524 48.9677 79.0588 45.0382 78.7485C43.6504 78.639 42.2156 78.5254 40.7471 78.4329C39.4892 78.3543 38.4021 79.3101 38.3228 80.5697C38.2433 81.8293 39.2001 82.9147 40.4597 82.9943C41.892 83.0845 43.3086 83.1965 44.6783 83.3046C48.8455 83.6339 52.7821 83.9447 56.0313 83.5413C57.3366 83.3793 61.7547 82.7513 66.4322 82.0868C70.8802 81.4548 75.4795 80.8012 76.7441 80.6442C78.1815 80.4648 79.5005 81.4824 79.6794 82.912C79.7361 83.3642 79.8865 84.5651 76.7261 86.0139C70.2264 88.9939 63.2999 91.5444 57.7226 93.0117C56.5021 93.3327 55.7729 94.5825 56.094 95.803C56.415 97.0235 57.665 97.7529 58.8853 97.4316C64.7058 95.9005 71.9028 93.2532 78.631 90.1685C80.9692 89.0965 82.3951 87.8477 83.2273 86.5913L107.819 79.9623C110.529 79.2882 111.917 80.3714 112.311 81.6118C112.691 82.8069 112.214 84.3459 110.294 85.0945C108.379 85.8157 103.797 87.8091 97.9988 90.3314C90.3136 93.6748 80.7491 97.8356 73.121 100.894C63.7362 104.657 61.0651 105.164 51.1388 105.053L35.4949 104.88C34.633 104.867 33.8327 105.35 33.4372 106.12L31.29 110.299C31.216 110.443 31.1573 110.595 31.1152 110.751C30.7981 111.935 30.3986 112.43 28.7458 112.43H5.74827C5.49828 112.43 5.22932 112.275 5.0104 112.006C4.8237 111.776 4.41352 111.127 4.63541 110.068C7.38741 96.9314 12.8105 88.7937 21.2148 85.1894C22.3748 84.6919 22.9118 83.3485 22.4143 82.1885C21.9171 81.0286 20.5734 80.4913 19.4135 80.989C9.53933 85.2237 3.24192 94.4287 0.162003 109.131C-0.277659 111.23 0.196281 113.328 1.46271 114.887C2.55341 116.23 4.11554 117 5.74805 117H28.7455C32.205 117 34.5208 115.337 35.4586 112.185L36.8562 109.465L51.0879 109.623C61.5854 109.738 64.9114 109.11 74.8216 105.137C82.5109 102.053 92.1092 97.8777 99.8216 94.5226C105.345 92.1198 110.116 90.0444 111.914 89.3682C111.921 89.3655 111.929 89.3627 111.936 89.36C116.398 87.6304 117.693 83.4563 116.667 80.2272Z" fill="white"/>
<path d="M30.3195 78.4255C29.0574 78.4255 28.0353 79.4486 28.0353 80.7107C28.0353 81.9728 29.059 82.9958 30.3211 82.9958C31.5832 82.9958 32.6063 81.9728 32.6063 80.7107C32.6063 79.4486 31.5832 78.4255 30.3211 78.4255H30.3195Z" fill="white"/>
<path d="M58.5019 73.1247C59.764 73.1247 60.7871 72.1017 60.7871 70.8396V61.699C60.7871 60.4369 59.7638 59.4138 58.5019 59.4138C45.9016 59.4138 35.6505 49.1627 35.6505 36.5624C35.6505 23.9621 45.9016 13.7109 58.5019 13.7109C70.3308 13.7109 80.0895 22.7461 81.2401 34.2772H78.3162C77.4659 34.2772 76.686 34.7493 76.2918 35.5025C75.8974 36.2557 75.9538 37.1656 76.4385 37.8644L86.3312 52.1324C86.758 52.7483 87.4596 53.1155 88.2091 53.1155C88.9586 53.1155 89.6602 52.7483 90.087 52.1324L99.9794 37.8644C100.464 37.1656 100.52 36.2557 100.126 35.5025C99.7317 34.7493 98.9518 34.2772 98.1017 34.2772H94.9939C93.8093 15.1775 77.8946 0 58.5019 0C38.3415 0 21.9396 16.4019 21.9396 36.5624C21.9396 56.7228 38.3415 73.1247 58.5019 73.1247ZM58.5019 4.57029C76.1424 4.57029 90.494 18.9219 90.494 36.5624C90.494 37.8244 91.5173 38.8475 92.7792 38.8475H93.7362L88.2089 46.8197L82.6816 38.8475H83.6386C84.2446 38.8475 84.8259 38.6067 85.2544 38.1782C85.6829 37.7497 85.9237 37.1684 85.9237 36.5624C85.9235 21.442 73.6221 9.14059 58.5019 9.14059C43.3816 9.14059 31.0802 21.442 31.0802 36.5624C31.0802 50.9131 42.1618 62.7246 56.2168 63.8898V68.4735C39.6394 67.2974 26.5099 53.4341 26.5099 36.5624C26.5099 18.9219 40.8615 4.57029 58.5019 4.57029Z" fill="white"/>
<path d="M60.1375 30.657C61.0296 31.5491 62.4768 31.5493 63.3692 30.6567C64.2615 29.7644 64.2615 28.3174 63.3689 27.4251C62.6242 26.6806 61.733 26.1694 60.7874 25.8915V25.1367C60.7874 23.8746 59.7641 22.8516 58.5023 22.8516C57.2402 22.8516 56.2171 23.8746 56.2171 25.1367V26.3437C55.6895 26.6216 55.1943 26.982 54.7509 27.4251C52.3751 29.801 52.3751 33.667 54.7509 36.0431L59.0214 40.3136C59.6156 40.9075 59.6156 41.8741 59.0214 42.468C58.7337 42.7557 58.3512 42.9141 57.9444 42.9141C57.5377 42.9141 57.1547 42.7557 56.867 42.4678C55.9746 41.5754 54.5277 41.5754 53.6353 42.4678C52.743 43.3602 52.743 44.8071 53.6353 45.6995C54.3668 46.4307 55.2516 46.9524 56.2169 47.2362V47.9883C56.2169 49.2504 57.2399 50.2734 58.502 50.2734C59.7639 50.2734 60.7872 49.2504 60.7872 47.9883V46.7833C61.3205 46.5013 61.8146 46.1382 62.2531 45.6997C64.629 43.3238 64.629 39.4578 62.2531 37.0817L57.9826 32.8112C57.6949 32.5235 57.5363 32.141 57.5363 31.734C57.5363 31.327 57.6947 30.9444 57.9826 30.6567C58.5767 30.0626 59.5434 30.0631 60.1375 30.657Z" fill="white"/>
</g>
<defs>
<clipPath id="clip0">
<rect width="117" height="117" fill="white"/>
</clipPath>
</defs>
</svg>
