<svg width="61" height="50" viewBox="0 0 61 50" fill="none" xmlns="http://www.w3.org/2000/svg">
<path d="M48.6251 16.1411C48.3193 16.1411 48.025 16.0024 47.8794 15.7629C47.6746 15.4257 47.8418 15.0163 48.253 14.8481C48.3196 14.8209 54.9366 12.0718 56.1745 8.21646C56.4902 7.23257 56.3113 6.31763 56.1215 5.34887C55.8298 3.85864 55.4993 2.16957 57.1865 0.27943C57.4581 -0.0246724 57.9789 -0.0907859 58.3498 0.131676C58.7208 0.354235 58.8016 0.781091 58.53 1.08519C57.253 2.51566 57.4903 3.72846 57.7653 5.13266C57.9642 6.14907 58.1898 7.30103 57.7843 8.56372C56.3537 13.02 49.2956 15.9469 48.9957 16.0693C48.8765 16.118 48.7499 16.1411 48.6251 16.1411Z" fill="#C40041"/>
<path d="M47.8995 7.34541L37.5779 5.84277L2.30811 22.5338V49.2025L3.99026 50L39.26 33.309L49.5816 22.0372V8.14288L47.8995 7.34541ZM44.0188 17.7C44.0188 16.8553 44.5332 15.8993 45.2379 15.3366C45.2368 15.3374 45.2357 15.3382 45.2347 15.3391C45.9917 15.1713 46.5569 15.6435 46.5569 16.5288C46.5569 17.3723 46.0442 18.3268 45.341 18.8898C44.5839 19.0574 44.0188 18.5853 44.0188 17.7Z" fill="#F18D83"/>
<path d="M47.4396 16.0838C47.4396 15.6427 47.2915 15.0738 46.7363 14.8857C45.9599 14.6227 45.158 15.3474 45.192 15.3199C46.1596 15.1057 46.5442 15.9326 46.5442 16.5784C46.5442 17.3752 46.0517 18.3528 45.3004 18.9544C46.6548 18.6542 47.4396 17.1289 47.4396 16.0838Z" fill="#C40041"/>
<path d="M39.2603 6.64014L3.99072 23.3312V49.9999L39.2605 33.3089L49.5821 22.0371V8.14278L39.2603 6.64014ZM45.7253 18.7572C44.7831 19.2031 44.0192 18.7297 44.0192 17.6999C44.0192 16.6701 44.783 15.4738 45.7253 15.0279C46.6676 14.582 47.4314 15.0554 47.4314 16.0852C47.4314 17.115 46.6676 18.3113 45.7253 18.7572Z" fill="#F43834"/>
<path d="M3.99074 49.9998L2.30859 49.2024V22.5337L3.99074 23.3312V49.9998Z" fill="#C40041"/>
<path d="M39.2603 6.64014L37.5781 5.84277L47.8999 7.34532L49.582 8.14278L39.2603 6.64014Z" fill="#C40041"/>
<path d="M46.9378 15.1996L49.382 14.0475C49.9523 13.7787 50.6641 14.1162 50.6641 14.6554C50.6641 15.2047 50.3061 15.7122 49.7251 15.9861L47.1273 17.2112C46.5886 17.4627 45.9194 17.1439 45.9194 16.6358C45.9194 16.0419 46.3082 15.4935 46.9378 15.1996Z" fill="#F18D83"/>
<path d="M24.1348 23.4946C24.1348 26.3118 23.2004 29.5583 20.225 31.2746C16.5221 33.4105 15.2268 30.2635 15.2131 27.7167C15.1982 24.9386 16.12 21.7201 19.0473 20.0238C22.6771 17.9204 24.1348 20.884 24.1348 23.4946ZM18.7747 26.0831C18.7747 26.7282 18.5666 28.7211 19.811 28.3629C20.7045 28.1057 20.5627 25.7571 20.5614 25.2375C20.5602 24.6953 20.7568 22.6891 19.6738 22.8513C18.6211 23.0089 18.7747 25.6099 18.7747 26.0831ZM32.7608 13.7744L23.1645 37.2219L19.6502 38.885L29.2465 15.4375L32.7608 13.7744ZM37.2926 24.7943C37.2926 27.6053 36.3461 30.8503 33.3797 32.5627C29.6876 34.6939 28.385 31.5585 28.3707 29.0164C28.3551 26.2385 29.2781 23.0194 32.205 21.3234C35.8349 19.2199 37.2926 22.1835 37.2926 24.7943ZM31.9325 27.3825C31.9325 27.6487 31.8699 30.2184 32.8316 29.7631C33.8289 29.2912 33.7066 27.6015 33.7248 26.8408C33.7308 26.5941 33.8316 23.6777 32.8316 24.1509C31.7747 24.6512 31.9325 26.6 31.9325 27.3825Z" fill="white"/>
</svg>
