<svg width="117" height="117" viewBox="0 0 117 117" fill="none" xmlns="http://www.w3.org/2000/svg">
<g clip-path="url(#clip0)">
<path d="M109.802 103.21L92.6179 73.4459C93.2351 72.7267 94.0739 72.1948 95.0529 71.964C97.7598 71.3262 100.004 69.5233 101.211 67.0177C102.418 64.5121 102.428 61.6331 101.239 59.1193C100.328 57.1952 100.849 54.9163 102.503 53.5777C104.666 51.8285 105.906 49.2304 105.906 46.4494C105.906 43.6685 104.666 41.0701 102.503 39.3211C100.849 37.9825 100.328 35.7036 101.239 33.7795C102.428 31.2655 102.418 28.3865 101.211 25.8809C100.004 23.3753 97.7598 21.5724 95.0526 20.9346C92.981 20.4465 91.5236 18.6191 91.5087 16.4906C91.4895 13.7096 90.2311 11.1202 88.0569 9.38624C85.8826 7.65232 83.0777 7.00175 80.3625 7.60182C78.2838 8.06066 76.1781 7.04677 75.2412 5.13552C74.0171 2.63838 71.7601 0.851219 69.0486 0.232418C66.3369 -0.386612 63.5281 0.244529 61.3417 1.96314C59.6686 3.27866 57.3311 3.27866 55.6578 1.96314C53.4714 0.244529 50.6626 -0.386155 47.9511 0.232418C45.2396 0.851219 42.9826 2.63838 41.7585 5.13552C40.8216 7.04677 38.715 8.06135 36.6374 7.60182C33.9218 7.00221 31.1171 7.65232 28.9431 9.38624C26.7688 11.1202 25.5106 13.7096 25.4912 16.4906C25.4764 18.6189 24.0189 20.4465 21.9471 20.9346C19.2401 21.5724 16.9955 23.3753 15.789 25.8809C14.5822 28.3865 14.5724 31.2655 15.7613 33.7793C16.6715 35.7033 16.1514 37.9823 14.4965 39.3209C12.3344 41.0701 11.0943 43.6682 11.0943 46.4492C11.0943 49.2301 12.3344 51.8285 14.4965 53.5775C16.1514 54.9161 16.6715 57.195 15.7613 59.1191C14.5722 61.6331 14.5822 64.5121 15.789 67.0177C16.9955 69.5233 19.2401 71.3262 21.9473 71.964C22.9262 72.1945 23.7651 72.7267 24.3823 73.4459L7.1982 103.21C6.73547 104.011 6.80197 105.013 7.36638 105.746C7.93103 106.479 8.88208 106.8 9.77532 106.558L21.7439 103.311L24.9163 115.299C25.153 116.194 25.9062 116.857 26.8237 116.98C26.9249 116.993 27.0259 117 27.1262 117C27.9344 117 28.6926 116.57 29.1044 115.857L43.7673 90.4606C44.9286 91.5355 46.3607 92.3033 47.9516 92.6664C50.6626 93.2847 53.4719 92.6543 55.6585 90.9357C57.3316 89.6201 59.669 89.6201 61.3424 90.9357C62.9785 92.2217 64.9629 92.8988 66.9945 92.8988C67.6778 92.8988 68.3667 92.8222 69.0491 92.6664C70.6399 92.3033 72.0722 91.5355 73.2333 90.4606L87.8962 115.857C88.308 116.57 89.0662 117 89.8744 117C89.9745 117 90.0757 116.993 90.1769 116.98C91.0944 116.857 91.8476 116.194 92.0843 115.299L95.2567 103.311L107.225 106.558C108.119 106.8 109.07 106.479 109.634 105.746C110.199 105.013 110.265 104.011 109.802 103.21ZM27.9171 108.773L25.5739 99.9188C25.4181 99.3306 25.0344 98.8286 24.5075 98.5244C23.9803 98.2201 23.354 98.1387 22.7667 98.298L13.9266 100.696L26.0956 79.619C26.6715 81.1281 27.6417 82.4742 28.9435 83.5126C31.1178 85.2465 33.9227 85.8971 36.6379 85.297C38.1714 84.9583 39.7186 85.4236 40.8015 86.4576L27.9171 108.773ZM68.032 88.2109C66.6714 88.521 65.2631 88.2048 64.1667 87.3431C62.4984 86.0314 60.4996 85.3758 58.5002 85.3758C56.5012 85.3758 54.5015 86.0316 52.8336 87.3431C51.7373 88.205 50.329 88.5215 48.9684 88.2109C47.6086 87.9006 46.4765 87.0042 45.8625 85.7517C43.9947 81.9411 39.7954 79.919 35.6519 80.8344C34.2897 81.1354 32.8832 80.8091 31.7928 79.9394C30.7024 79.0697 30.0712 77.7711 30.0614 76.3763C30.0319 72.1326 27.1262 68.4891 22.9955 67.5158C21.6377 67.1959 20.512 66.2917 19.9067 65.0349C19.3016 63.7781 19.2966 62.3344 19.893 61.0733C21.7073 57.2371 20.6704 52.6936 17.3709 50.0246C16.2864 49.1474 15.6647 47.8442 15.6647 46.4494C15.6647 45.0546 16.2867 43.7514 17.3712 42.8742C20.6704 40.2052 21.7076 35.6617 19.893 31.8253C19.2966 30.5644 19.3016 29.1205 19.9069 27.8639C20.512 26.6071 21.6379 25.7029 22.9955 25.383C27.1262 24.4098 30.0319 20.7662 30.0614 16.5226C30.0712 15.1277 30.7021 13.8289 31.7928 12.9594C32.8832 12.0897 34.2895 11.7632 35.6521 12.0644C39.7952 12.9791 43.9947 10.9577 45.8625 7.14708C46.4765 5.89463 47.6086 4.99819 48.9684 4.68788C50.3287 4.37779 51.7373 4.69382 52.8336 5.55575C56.1701 8.1788 60.8303 8.1788 64.1667 5.55575C65.2634 4.69382 66.6717 4.37779 68.032 4.68788C69.3918 4.99819 70.5238 5.89463 71.1378 7.14708C73.0057 10.9577 77.2048 12.9791 81.3485 12.0644C82.7102 11.763 84.1171 12.0897 85.2076 12.9594C86.298 13.8291 86.9292 15.1277 86.939 16.5226C86.9685 20.7662 89.8742 24.4098 94.0049 25.383C95.3627 25.7029 96.4884 26.6071 97.0937 27.8639C97.6988 29.1207 97.7038 30.5644 97.1074 31.8255C95.293 35.6617 96.33 40.2052 99.6294 42.8742C100.714 43.7514 101.336 45.0546 101.336 46.4494C101.336 47.8442 100.714 49.1474 99.6292 50.0246C96.33 52.6936 95.2928 57.2371 97.1074 61.0735C97.7038 62.3344 97.6988 63.7783 97.0935 65.0349C96.4884 66.2917 95.3625 67.1959 94.0049 67.5158C89.8742 68.4891 86.9685 72.1326 86.939 76.3763C86.9292 77.7711 86.2983 79.0699 85.2076 79.9394C84.1171 80.8091 82.7107 81.1352 81.3483 80.8344C77.2048 79.9188 73.0057 81.9411 71.1378 85.7517C70.5238 87.0042 69.3918 87.9004 68.032 88.2109ZM94.2337 98.298C93.6462 98.1387 93.0198 98.2203 92.4929 98.5244C91.966 98.8288 91.5821 99.3306 91.4264 99.9188L89.0833 108.773L76.1991 86.4576C77.2822 85.4234 78.8295 84.9579 80.3625 85.297C83.0783 85.8968 85.8826 85.2465 88.0569 83.5126C89.3587 82.4744 90.3289 81.1281 90.9048 79.619L103.074 100.696L94.2337 98.298Z" fill="white"/>
<path d="M69.3719 63.7299C69.8433 63.7299 70.3147 63.5843 70.7151 63.2935C71.5139 62.713 71.8496 61.685 71.5473 60.7451L67.9453 49.5464L77.4442 42.5671C78.2401 41.9823 78.5703 40.9522 78.2627 40.0137C77.9549 39.0752 77.079 38.4407 76.0914 38.4407H64.337L60.6714 27.2723C60.3634 26.334 59.4878 25.6997 58.5004 25.6997C57.513 25.6997 56.6371 26.334 56.3293 27.2723L52.6638 38.4407H40.9093C39.9217 38.4407 39.0456 39.0752 38.7381 40.0137C38.4303 40.9522 38.7605 41.9823 39.5566 42.5671L49.0554 49.5464L45.4535 60.7451C45.1512 61.6852 45.4868 62.713 46.2857 63.2935C47.0848 63.8739 48.1661 63.8752 48.9666 63.2973L58.5008 56.4133L68.0351 63.2973C68.4337 63.5857 68.9026 63.7299 69.3719 63.7299ZM59.8376 51.7424C59.4382 51.454 58.9691 51.3098 58.4999 51.3098C58.0308 51.3098 57.5617 51.454 57.1622 51.7424L51.9353 55.5164L53.9094 49.3789C54.2104 48.4432 53.8793 47.4197 53.087 46.8377L47.8782 43.0104H54.3185C55.3058 43.0104 56.1817 42.376 56.4895 41.4378L58.4999 35.3121L60.5104 41.4378C60.8184 42.376 61.694 43.0104 62.6814 43.0104H69.1217L63.9128 46.8377C63.1206 47.4197 62.7895 48.4429 63.0904 49.3789L65.0645 55.5164L59.8376 51.7424Z" fill="white"/>
<path d="M90.4912 46.4494C90.4912 28.8095 76.1399 14.4583 58.5 14.4583C40.86 14.4583 26.5088 28.8095 26.5088 46.4494C26.5088 59.8691 34.9812 71.9583 47.5914 76.5319C48.7776 76.9619 50.0883 76.3493 50.5189 75.1629C50.9491 73.9765 50.3363 72.666 49.1499 72.2355C38.3412 68.3154 31.0792 57.9528 31.0792 46.4494C31.0792 31.3295 43.3803 19.0284 58.5002 19.0284C73.6202 19.0284 85.9212 31.3295 85.9212 46.4494C85.9212 57.9535 78.6585 68.3163 67.8492 72.2362C66.6628 72.6664 66.0497 73.9769 66.4799 75.1634C66.817 76.0925 67.6938 76.6701 68.6282 76.6701C68.8868 76.6701 69.1498 76.6258 69.4071 76.5326C82.0181 71.9594 90.4912 59.87 90.4912 46.4494Z" fill="white"/>
<path d="M58.5 73.8701C57.899 73.8701 57.3094 74.1146 56.8844 74.5397C56.4594 74.9647 56.2148 75.5543 56.2148 76.1553C56.2148 76.7563 56.4594 77.3458 56.8844 77.7709C57.3094 78.1959 57.899 78.4404 58.5 78.4404C59.101 78.4404 59.6906 78.1959 60.1156 77.7709C60.5406 77.3458 60.7852 76.7563 60.7852 76.1553C60.7852 75.5543 60.5406 74.9647 60.1156 74.5397C59.6906 74.1146 59.101 73.8701 58.5 73.8701Z" fill="white"/>
</g>
<defs>
<clipPath id="clip0">
<rect width="117" height="117" fill="white"/>
</clipPath>
</defs>
</svg>
