<svg width="117" height="117" viewBox="0 0 117 117" fill="none" xmlns="http://www.w3.org/2000/svg">
<g clip-path="url(#clip0)">
<path d="M98.7398 26.8251C90.9265 24.1859 84.6739 17.9857 82.0141 10.2395C81.6472 9.17129 80.6463 8.45351 79.5232 8.45351H37.4771C36.3542 8.45351 35.3532 9.17129 34.9861 10.2397C32.3263 17.9857 26.0737 24.1859 18.2607 26.8249C17.1847 27.1881 16.4619 28.1909 16.4619 29.32V49.2519C16.4619 62.8346 20.7706 75.7536 28.9224 86.612C36.1229 96.2035 46.3018 103.785 57.5841 107.961C58.1747 108.179 58.8253 108.179 59.4156 107.961C69.1787 104.348 77.9989 98.3024 84.9226 90.4791C85.5505 89.7695 85.4843 88.6853 84.7748 88.0574C84.065 87.4293 82.9808 87.4956 82.3531 88.2052C75.8679 95.5331 67.6251 101.211 58.4998 104.64C47.9377 100.67 38.4169 93.5449 31.6662 84.5522C23.9638 74.2924 19.8927 62.0857 19.8927 49.2519V29.8893C28.2795 26.8771 35.0048 20.2054 38.043 11.8844H78.9566C81.9947 20.2054 88.7201 26.8771 97.1068 29.8893V49.2519C97.1068 60.9555 93.6801 72.2543 87.1971 81.9268C86.6697 82.7139 86.8799 83.7795 87.667 84.307C88.4541 84.8347 89.5198 84.6243 90.0472 83.8372C96.9103 73.5977 100.538 61.6383 100.538 49.2521V29.3202C100.538 28.1912 99.8153 27.1884 98.7398 26.8251ZM53.3534 69.1725C53.3534 72.0105 55.662 74.3191 58.5 74.3191C61.338 74.3191 63.6466 72.0105 63.6466 69.1725V64.6748C64.321 63.6615 64.676 62.4874 64.676 61.2611C64.676 59.5691 63.9703 57.9323 62.7399 56.7703C61.4919 55.5918 59.858 54.9978 58.1395 55.0954C55.1025 55.2693 52.6127 57.6836 52.3481 60.7112C52.2252 62.1154 52.5814 63.5117 53.3534 64.6746V69.1725ZM55.7663 61.01C55.8835 59.6682 56.9883 58.5984 58.3358 58.521C58.3907 58.5178 58.4453 58.5162 58.4998 58.5162C59.2054 58.5162 59.8695 58.7786 60.3841 59.2649C60.9393 59.7892 61.2449 60.498 61.2449 61.2611C61.2449 61.8497 61.0612 62.4103 60.714 62.8831C60.388 63.3266 60.2155 63.8591 60.2155 64.4225V69.1723C60.2155 70.1183 59.4461 70.8878 58.5 70.8878C57.5539 70.8878 56.7845 70.1183 56.7845 69.1723V64.4223C56.7845 63.8594 56.612 63.3266 56.2856 62.8824C56.0072 62.5034 55.6909 61.8707 55.7663 61.01ZM105.461 19.6839C96.9284 18.8158 90.0969 12.0488 89.2169 3.59303C89.0035 1.54467 87.2928 0 85.2368 0H31.7632C29.7075 0 27.9965 1.54467 27.7836 3.59303C26.9034 12.0486 20.0718 18.8158 11.5397 19.6839C9.48695 19.8927 7.93884 21.6039 7.93884 23.6644V49.2521C7.93884 64.5353 12.7549 79.0982 21.8665 91.3664C26.2503 97.269 31.5031 102.449 37.4789 106.761C43.5286 111.127 50.1867 114.507 57.2685 116.806C58.0627 117.065 58.9376 117.065 59.7318 116.806C66.8133 114.507 73.4714 111.127 79.5211 106.761C85.4969 102.448 90.7497 97.269 95.1335 91.3664C104.245 79.0982 109.061 64.5353 109.061 49.2521V23.6644C109.061 21.6039 107.513 19.8925 105.461 19.6839ZM105.63 49.2521C105.63 63.793 101.048 77.6484 92.379 89.3208C83.8784 100.766 72.2225 109.142 58.6718 113.543C58.5611 113.579 58.4389 113.579 58.3282 113.543C44.7773 109.142 33.1214 100.766 24.621 89.3208C15.9523 77.6484 11.3699 63.793 11.3699 49.2521V23.6644C11.3699 23.371 11.592 23.1271 11.8869 23.0974C22.0278 22.0658 30.1485 14.0123 31.1961 3.94826C31.2268 3.65342 31.4706 3.43109 31.7632 3.43109H85.2368C85.5294 3.43109 85.7732 3.65342 85.8039 3.94826C86.8515 14.0123 94.9722 22.0658 105.113 23.0974C105.408 23.1273 105.63 23.3712 105.63 23.6644V49.2521ZM44.5895 29.0082C45.0941 28.2063 44.853 27.1472 44.051 26.6426C43.2491 26.1378 42.1898 26.3793 41.6854 27.1811C39.6981 30.3397 38.6477 33.986 38.6477 37.7259V47.2678C36.0285 48.7377 34.2537 51.5408 34.2537 54.7521V74.6524C34.2537 79.3823 38.1015 83.2301 42.8314 83.2301H74.1686C78.8985 83.2301 82.7463 79.3823 82.7463 74.6524V54.7521C82.7463 51.5408 80.9716 48.7379 78.3523 47.2678V37.7259C78.3523 26.7794 69.4465 17.8737 58.5 17.8737C54.7194 17.8737 51.0395 18.9453 47.8579 20.9729C47.0589 21.482 46.824 22.5425 47.3332 23.3414C47.8426 24.1404 48.9028 24.3756 49.7018 23.8662C52.3314 22.1904 55.3736 21.3048 58.4998 21.3048C67.5544 21.3048 74.921 28.6713 74.921 37.7259V46.2094C74.6728 46.1877 74.4221 46.1744 74.1684 46.1744H71.4899V37.7259C71.4899 34.2557 70.1385 30.993 67.6836 28.5382C65.2288 26.0861 61.9672 24.7356 58.4998 24.7356C51.337 24.7356 45.5097 30.563 45.5097 37.7257V46.1742H42.8312C42.5775 46.1742 42.3268 46.1874 42.0786 46.2092V37.7259C42.0788 34.6334 42.9471 31.6188 44.5895 29.0082ZM48.941 37.7259C48.941 32.4551 53.2292 28.1669 58.5 28.1669C61.0518 28.1669 63.4522 29.161 65.2586 30.9651C67.0644 32.7712 68.059 35.1723 68.059 37.7259V46.1744H48.941V37.7259ZM42.8314 49.6055H74.1686C77.0066 49.6055 79.3153 51.9142 79.3153 54.7521V74.6524C79.3153 77.4904 77.0066 79.799 74.1686 79.799H42.8314C39.9934 79.799 37.6848 77.4904 37.6848 74.6524V54.7521C37.6848 51.9142 39.9936 49.6055 42.8314 49.6055Z" fill="white"/>
</g>
<defs>
<clipPath id="clip0">
<rect width="117" height="117" fill="white"/>
</clipPath>
</defs>
</svg>
