<svg width="19" height="17" viewBox="0 0 19 17" fill="none" xmlns="http://www.w3.org/2000/svg">
<g clip-path="url(#clip0)">
<path d="M4.66167 7.47021H1.00929C0.80768 7.47021 0.644043 7.62034 0.644043 7.80529V15.8469C0.644043 16.0319 0.80768 16.182 1.00929 16.182H4.66167C4.86328 16.182 5.02692 16.0319 5.02692 15.8469V7.80526C5.02688 7.6203 4.864 7.47021 4.66167 7.47021Z" fill="white" fill-opacity="0.71"/>
<path d="M11.2217 0.0986328H7.56935C7.36774 0.0986328 7.2041 0.248754 7.2041 0.433711V15.8468C7.2041 16.0318 7.36774 16.1819 7.56935 16.1819H11.2217C11.4233 16.1819 11.587 16.0318 11.587 15.8468V0.433711C11.587 0.248754 11.4233 0.0986328 11.2217 0.0986328Z" fill="white" fill-opacity="0.71"/>
<path d="M17.7959 3.44922H14.1436C13.942 3.44922 13.7783 3.59934 13.7783 3.7843V15.8467C13.7783 16.0317 13.942 16.1818 14.1436 16.1818H17.7959C17.9976 16.1818 18.1612 16.0317 18.1612 15.8467V3.7843C18.1612 3.59931 17.9976 3.44922 17.7959 3.44922Z" fill="white" fill-opacity="0.71"/>
</g>
<defs>
<clipPath id="clip0">
<rect width="17.5314" height="16.0833" fill="white" transform="translate(0.637207 0.0986328)"/>
</clipPath>
</defs>
</svg>
