<svg width="26" height="27" viewBox="0 0 26 27" fill="none" xmlns="http://www.w3.org/2000/svg">
<g clip-path="url(#clip0)">
<path d="M25.2051 24.4386L18.983 18.2166C20.5296 16.3568 21.4614 13.9685 21.4614 11.3663C21.4614 5.44916 16.6476 0.635254 10.7307 0.635254C4.81378 0.635254 0 5.44916 0 11.3663C0 17.283 4.81378 22.0965 10.7307 22.0965C13.3328 22.0965 15.7212 21.1648 17.5811 19.6182L23.8034 25.8404C23.9968 26.034 24.2506 26.1307 24.5042 26.1307C24.7579 26.1307 25.0116 26.034 25.2052 25.8404C25.5924 25.4533 25.5924 24.8257 25.2051 24.4386ZM1.9825 11.3663C1.9825 6.54231 5.90693 2.61776 10.7307 2.61776C15.5544 2.61776 19.4787 6.54231 19.4787 11.3663C19.4787 16.1898 15.5544 20.114 10.7307 20.114C5.90693 20.114 1.9825 16.1898 1.9825 11.3663Z" fill="black"/>
</g>
<defs>
<clipPath id="clip0">
<rect width="25.4955" height="25.4955" fill="white" transform="translate(0 0.635254)"/>
</clipPath>
</defs>
</svg>
