<svg width="31" height="31" viewBox="0 0 31 31" fill="none" xmlns="http://www.w3.org/2000/svg">
<g clip-path="url(#clip0)">
<path d="M9.88869 24.1128C8.10127 24.1128 6.65234 25.5618 6.65234 27.3491C6.65234 29.1366 8.10133 30.5855 9.88869 30.5855C11.6761 30.5855 13.125 29.1365 13.125 27.3491C13.1251 25.5618 11.6761 24.1128 9.88869 24.1128ZM9.88869 29.1472C8.89569 29.1472 8.09073 28.3422 8.09073 27.3492C8.09073 26.3562 8.89569 25.5513 9.88869 25.5513C10.8817 25.5513 11.6866 26.3562 11.6866 27.3492C11.6867 28.3422 10.8817 29.1472 9.88869 29.1472Z" fill="white"/>
<path d="M23.5537 24.1128C21.7663 24.1128 20.3174 25.5618 20.3174 27.3491C20.3174 29.1366 21.7664 30.5855 23.5537 30.5855C25.3411 30.5855 26.7901 29.1365 26.7901 27.3491C26.7901 25.5618 25.3411 24.1128 23.5537 24.1128ZM23.5537 29.1472C22.5607 29.1472 21.7558 28.3422 21.7558 27.3492C21.7558 26.3562 22.5607 25.5513 23.5537 25.5513C24.5467 25.5513 25.3517 26.3562 25.3517 27.3492C25.3517 28.3422 24.5467 29.1472 23.5537 29.1472Z" fill="white"/>
<path d="M30.8534 5.23369C30.7036 5.07009 30.4987 4.96767 30.2781 4.94599L6.86832 4.62235L6.22105 2.64455C5.76506 1.32241 4.52696 0.429837 3.12849 0.415039H0.719195C0.321983 0.415039 0 0.737021 0 1.13423C0 1.53145 0.321983 1.85343 0.719195 1.85343H3.12849C3.91046 1.87071 4.59902 2.37281 4.85458 3.11204L9.42146 16.8846L9.0619 17.7116C8.66083 18.7459 8.78128 19.9099 9.38553 20.8401C9.984 21.7538 10.9908 22.3176 12.0825 22.3505H26.0709C26.4681 22.3505 26.7901 22.0285 26.7901 21.6313C26.7901 21.234 26.4681 20.9121 26.0709 20.9121H12.0825C11.466 20.8966 10.8985 20.5723 10.5721 20.049C10.2495 19.5321 10.1832 18.8953 10.3924 18.3229L10.6801 17.6757L25.8191 16.0934C27.482 15.9103 28.8499 14.7008 29.2353 13.0728L30.9614 5.8449C31.0392 5.63676 30.9979 5.40267 30.8534 5.23369ZM27.8328 12.7492C27.5994 13.7972 26.7096 14.5702 25.6393 14.6551L10.6801 16.2013L7.3358 6.06074L29.3791 6.38438L27.8328 12.7492Z" fill="white"/>
</g>
<defs>
<clipPath id="clip0">
<rect width="31" height="31" fill="white"/>
</clipPath>
</defs>
</svg>
