<svg width="21" height="21" viewBox="0 0 21 21" fill="none" xmlns="http://www.w3.org/2000/svg">
<g clip-path="url(#clip0)">
<path d="M6.69895 16.334C5.48812 16.334 4.50659 17.3156 4.50659 18.5263C4.50659 19.7372 5.48817 20.7187 6.69895 20.7187C7.90979 20.7187 8.89131 19.7371 8.89131 18.5263C8.89136 17.3156 7.90979 16.334 6.69895 16.334ZM6.69895 19.7444C6.02628 19.7444 5.48099 19.1991 5.48099 18.5264C5.48099 17.8537 6.02628 17.3084 6.69895 17.3084C7.37163 17.3084 7.91692 17.8537 7.91692 18.5264C7.91697 19.1991 7.37163 19.7444 6.69895 19.7444Z" fill="black"/>
<path d="M15.9557 16.334C14.7448 16.334 13.7633 17.3156 13.7633 18.5263C13.7633 19.7372 14.7449 20.7187 15.9557 20.7187C17.1665 20.7187 18.148 19.7371 18.148 18.5263C18.148 17.3156 17.1665 16.334 15.9557 16.334ZM15.9557 19.7444C15.283 19.7444 14.7377 19.1991 14.7377 18.5264C14.7377 17.8537 15.283 17.3084 15.9557 17.3084C16.6283 17.3084 17.1736 17.8537 17.1736 18.5264C17.1737 19.1991 16.6283 19.7444 15.9557 19.7444Z" fill="black"/>
<path d="M20.9007 3.5455C20.7992 3.43467 20.6604 3.36529 20.5109 3.3506L4.65273 3.13137L4.21426 1.79156C3.90536 0.895922 3.06665 0.291275 2.1193 0.28125H0.487197C0.218117 0.28125 0 0.499367 0 0.768447C0 1.03753 0.218117 1.25564 0.487197 1.25564H2.1193C2.64902 1.26735 3.11547 1.60748 3.28859 2.10825L6.38228 11.438L6.13871 11.9983C5.86702 12.6989 5.94861 13.4875 6.35794 14.1176C6.76336 14.7365 7.4454 15.1185 8.18494 15.1407H17.6609C17.93 15.1407 18.1481 14.9226 18.1481 14.6535C18.1481 14.3844 17.93 14.1663 17.6609 14.1663H8.18489C7.76726 14.1559 7.38283 13.9362 7.16178 13.5817C6.94319 13.2315 6.89829 12.8001 7.03999 12.4124L7.23489 11.9739L17.4904 10.9021C18.6168 10.778 19.5435 9.95869 19.8046 8.85585L20.9738 3.95954C21.0265 3.81854 20.9986 3.65997 20.9007 3.5455ZM18.8545 8.63666C18.6963 9.34659 18.0936 9.87024 17.3686 9.92773L7.23489 10.9752L4.96942 4.10576L19.902 4.325L18.8545 8.63666Z" fill="black"/>
</g>
<defs>
<clipPath id="clip0">
<rect width="21" height="21" fill="white"/>
</clipPath>
</defs>
</svg>
