<svg width="27" height="28" viewBox="0 0 27 28" fill="none" xmlns="http://www.w3.org/2000/svg">
<path d="M25.6215 7.43938C25.3298 6.31481 24.4748 5.42833 23.3906 5.12552C21.4098 4.56348 13.4865 4.56348 13.4865 4.56348C13.4865 4.56348 5.56353 4.56348 3.58274 5.10421C2.51935 5.4067 1.64352 6.31497 1.35183 7.43938C0.830566 9.49336 0.830566 13.7531 0.830566 13.7531C0.830566 13.7531 0.830566 18.0342 1.35183 20.0667C1.64383 21.1911 2.4985 22.0776 3.5829 22.3804C5.58438 22.9426 13.4868 22.9426 13.4868 22.9426C13.4868 22.9426 21.4098 22.9426 23.3906 22.4019C24.475 22.0993 25.3298 21.2128 25.6218 20.0884C26.1429 18.0342 26.1429 13.7747 26.1429 13.7747C26.1429 13.7747 26.1638 9.49336 25.6215 7.43938ZM10.9639 17.6883V9.8178L17.5525 13.7531L10.9639 17.6883Z" fill="black" fill-opacity="0.85"/>
</svg>
