<svg width="27" height="28" viewBox="0 0 27 28" fill="none" xmlns="http://www.w3.org/2000/svg">
<path d="M24.7458 0.861328H2.22659C1.4555 0.861809 0.830412 1.51037 0.830566 2.31033V25.6636C0.83103 26.4632 1.45643 27.1115 2.22782 27.1113H14.352V16.96H11.0643V12.9866H14.352V10.0624C14.352 6.67145 16.3482 4.82574 19.2651 4.82574C20.6622 4.82574 21.8628 4.93373 22.2127 4.98196V8.52612H20.2013C18.6144 8.52612 18.3071 9.30814 18.3071 10.4559V12.9866H22.1015L21.6071 16.96H18.3071V27.1113H24.7458C25.5174 27.1115 26.1429 26.4631 26.1431 25.663C26.1431 25.6628 26.1431 25.6626 26.1431 25.6623V2.30905C26.1428 1.50941 25.5172 0.861168 24.7458 0.861328Z" fill="white" fill-opacity="0.85"/>
</svg>
