<svg width="27" height="28" viewBox="0 0 27 28" fill="none" xmlns="http://www.w3.org/2000/svg">
<g clip-path="url(#clip0)">
<path d="M26.9735 8.23208C26.9103 6.74433 26.6783 5.72152 26.3459 4.83523C26.0031 3.89447 25.4756 3.0522 24.7846 2.35202C24.1094 1.64095 23.2919 1.08841 22.3952 0.738425C21.5357 0.393784 20.5545 0.153198 19.1199 0.0876025C17.6746 0.0164522 17.2157 0 13.55 0C9.88424 0 9.4254 0.0164522 7.98543 0.0820473C6.55082 0.147642 5.56454 0.388443 4.71011 0.73287C3.80274 1.08841 2.99056 1.63539 2.31538 2.35202C1.6297 3.0522 1.09711 3.90002 0.759416 4.82989C0.427084 5.72152 0.195089 6.73877 0.131837 8.22652C0.0632279 9.72538 0.0473633 10.2012 0.0473633 14.0027C0.0473633 17.8043 0.0632279 18.2801 0.12648 19.7734C0.189733 21.2611 0.421933 22.284 0.754265 23.1702C1.09711 24.111 1.6297 24.9533 2.31538 25.6534C2.99056 26.3645 3.8081 26.9171 4.70476 27.267C5.56454 27.6117 6.54546 27.8523 7.98028 27.9179C9.42005 27.9837 9.87909 27.9999 13.5448 27.9999C17.2106 27.9999 17.6694 27.9837 19.1094 27.9179C20.544 27.8523 21.5303 27.6117 22.3847 27.267C24.1993 26.5395 25.6339 25.0518 26.3354 23.1702C26.6675 22.2786 26.8997 21.2611 26.963 19.7734C27.0262 18.2801 27.0421 17.8043 27.0421 14.0027C27.0421 10.2012 27.0368 9.72538 26.9735 8.23208ZM24.5421 19.664C24.484 21.0315 24.2625 21.7699 24.0779 22.2622C23.6242 23.482 22.6907 24.4501 21.5144 24.9206C21.0397 25.112 20.3225 25.3417 19.0091 25.4017C17.585 25.4676 17.1578 25.4838 13.5553 25.4838C9.95285 25.4838 9.52038 25.4676 8.10143 25.4017C6.78281 25.3417 6.07076 25.112 5.59606 24.9206C5.01072 24.6962 4.47791 24.3407 4.04545 23.8758C3.59712 23.4217 3.25428 22.8747 3.03794 22.2677C2.85334 21.7754 2.63185 21.0315 2.57396 19.6696C2.5105 18.1927 2.49484 17.7496 2.49484 14.0136C2.49484 10.2777 2.5105 9.82922 2.57396 8.35792C2.63185 6.99047 2.85334 6.25204 3.03794 5.75976C3.25428 5.15253 3.59712 4.6002 4.05081 4.15151C4.48842 3.68657 5.01587 3.33103 5.60142 3.1069C6.07612 2.91546 6.79353 2.68577 8.10679 2.62551C9.53089 2.55992 9.95821 2.54347 13.5605 2.54347C17.1684 2.54347 17.5955 2.55992 19.0144 2.62551C20.333 2.68577 21.0451 2.91546 21.5198 3.1069C22.1051 3.33103 22.6379 3.68657 23.0704 4.15151C23.5187 4.60554 23.8616 5.15253 24.0779 5.75976C24.2625 6.25204 24.484 6.99581 24.5421 8.35792C24.6054 9.83478 24.6212 10.2777 24.6212 14.0136C24.6212 17.7496 24.6054 18.1871 24.5421 19.664Z" fill="white" fill-opacity="0.85"/>
<path d="M13.5502 6.80957C9.72104 6.80957 6.61426 10.0312 6.61426 14.0024C6.61426 17.9736 9.72104 21.1952 13.5502 21.1952C17.3795 21.1952 20.4861 17.9736 20.4861 14.0024C20.4861 10.0312 17.3795 6.80957 13.5502 6.80957ZM13.5502 18.6682C11.066 18.6682 9.05102 16.5788 9.05102 14.0024C9.05102 11.426 11.066 9.33658 13.5502 9.33658C16.0345 9.33658 18.0493 11.426 18.0493 14.0024C18.0493 16.5788 16.0345 18.6682 13.5502 18.6682V18.6682Z" fill="white" fill-opacity="0.85"/>
<path d="M22.3798 6.52587C22.3798 7.45318 21.6547 8.20507 20.7603 8.20507C19.8661 8.20507 19.1411 7.45318 19.1411 6.52587C19.1411 5.59835 19.8661 4.84668 20.7603 4.84668C21.6547 4.84668 22.3798 5.59835 22.3798 6.52587V6.52587Z" fill="white" fill-opacity="0.85"/>
</g>
<defs>
<clipPath id="clip0">
<rect width="27" height="28" fill="white"/>
</clipPath>
</defs>
</svg>
