<?xml version="1.0"?>
<svg xmlns="http://www.w3.org/2000/svg" xmlns:xlink="http://www.w3.org/1999/xlink" xmlns:svgjs="http://svgjs.com/svgjs" version="1.1" width="512" height="512" x="0" y="0" viewBox="0 0 512.001 512.001" style="enable-background:new 0 0 512 512" xml:space="preserve"><g>
<g xmlns="http://www.w3.org/2000/svg">
	<g>
		<path d="M502.571,268.417c-6.756-6.847-6.756-17.987,0-24.834c7.371-7.47,10.656-17.699,9.015-28.064    c-1.642-10.365-7.928-19.078-17.246-23.904c-8.54-4.424-11.982-15.019-7.674-23.618c4.702-9.383,4.666-20.126-0.099-29.477    c-4.765-9.351-13.436-15.694-23.788-17.404c-9.49-1.568-16.037-10.582-14.597-20.091c1.572-10.376-1.781-20.582-9.202-28.002    s-17.625-10.775-28.004-9.204c-9.506,1.444-18.522-5.106-20.09-14.597c-1.711-10.354-8.056-19.024-17.405-23.788    c-9.35-4.764-20.094-4.8-29.477-0.098c-8.597,4.309-19.193,0.866-23.618-7.675c-4.826-9.318-13.539-15.603-23.903-17.245    c-10.357-1.642-20.593,1.644-28.064,9.015c-6.848,6.756-17.985,6.756-24.833,0c-7.471-7.371-17.7-10.658-28.064-9.015    c-10.365,1.642-19.077,7.928-23.903,17.245c-4.425,8.541-15.017,11.986-23.619,7.675c-9.381-4.702-20.123-4.667-29.475,0.098    c-9.352,4.764-15.695,13.435-17.406,23.79c-1.568,9.489-10.582,16.044-20.09,14.595c-10.372-1.57-20.582,1.782-28.004,9.204    c-7.421,7.421-10.774,17.626-9.202,28.002c1.44,9.51-5.107,18.523-14.597,20.091c-10.354,1.711-19.023,8.055-23.788,17.405    s-4.801,20.094-0.099,29.476c4.309,8.6,0.866,19.194-7.674,23.618c-9.319,4.827-15.604,13.54-17.246,23.904    c-1.642,10.365,1.644,20.594,9.015,28.064c6.756,6.847,6.756,17.987,0,24.834c-7.371,7.47-10.656,17.699-9.015,28.064    c1.641,10.365,7.928,19.078,17.246,23.904c8.54,4.424,11.982,15.019,7.674,23.618c-4.702,9.383-4.666,20.126,0.099,29.477    s13.435,15.694,23.788,17.404c9.49,1.568,16.037,10.582,14.597,20.091c-1.572,10.376,1.781,20.582,9.202,28.002    c7.421,7.42,17.625,10.776,28.004,9.204c9.503-1.446,18.522,5.106,20.09,14.597c1.711,10.354,8.056,19.024,17.405,23.788    c9.35,4.763,20.094,4.8,29.477,0.098c8.599-4.308,19.193-0.866,23.618,7.675c4.826,9.318,13.539,15.603,23.903,17.245    c10.363,1.645,20.594-1.643,28.064-9.015c6.848-6.756,17.985-6.756,24.833,0c6.208,6.125,14.32,9.429,22.832,9.429    c1.731,0,3.48-0.137,5.232-0.414c10.365-1.642,19.077-7.928,23.903-17.245c4.426-8.541,15.021-11.984,23.619-7.675    c9.382,4.702,20.123,4.667,29.475-0.098c9.352-4.764,15.695-13.435,17.406-23.79c1.569-9.489,10.587-16.04,20.09-14.595    c10.375,1.572,20.583-1.782,28.004-9.204c7.421-7.421,10.774-17.626,9.202-28.002c-1.44-9.51,5.107-18.523,14.597-20.091    c10.354-1.711,19.023-8.055,23.788-17.405c4.765-9.351,4.801-20.094,0.099-29.476c-4.309-8.6-0.866-19.194,7.674-23.618    c9.319-4.827,15.604-13.54,17.246-23.904C513.227,286.117,509.942,275.887,502.571,268.417z M491.893,278.952    c3.988,4.042,5.766,9.576,4.877,15.182c-0.888,5.608-4.289,10.321-9.331,12.933c-15.785,8.178-22.148,27.762-14.185,43.657    c2.544,5.076,2.524,10.888-0.054,15.946c-2.577,5.059-7.268,8.491-12.869,9.416c-17.541,2.899-29.645,19.559-26.981,37.138    c0.851,5.613-0.964,11.134-4.979,15.148c-4.015,4.015-9.534,5.831-15.149,4.979c-17.582-2.665-34.239,9.44-37.137,26.981    c-0.926,5.602-4.358,10.292-9.417,12.87c-5.059,2.578-10.871,2.597-15.946,0.053c-15.897-7.968-35.48-1.602-43.656,14.186    c-2.611,5.042-7.325,8.442-12.933,9.33c-5.608,0.888-11.142-0.889-15.183-4.876c-6.328-6.245-14.638-9.367-22.951-9.367    c-8.312,0-16.624,3.123-22.951,9.366c-4.042,3.989-9.582,5.767-15.183,4.877c-5.607-0.888-10.321-4.289-12.933-9.33    c-8.178-15.787-27.762-22.148-43.657-14.186c-5.076,2.543-10.889,2.524-15.944-0.053c-5.06-2.577-8.492-7.269-9.418-12.87    c-2.898-17.541-19.554-29.647-37.137-26.981c-5.612,0.851-11.136-0.964-15.149-4.979c-4.015-4.015-5.829-9.536-4.979-15.148    c2.664-17.578-9.44-34.238-26.981-37.138c-5.602-0.925-10.292-4.357-12.869-9.416c-2.578-5.059-2.598-10.871-0.054-15.946    c7.965-15.895,1.602-35.479-14.185-43.656c-5.041-2.611-8.442-7.325-9.33-12.933c-0.889-5.607,0.889-11.142,4.877-15.182    c12.487-12.656,12.487-33.248,0-45.903c-3.988-4.042-5.766-9.576-4.877-15.182c0.888-5.608,4.289-10.321,9.331-12.933    c15.785-8.178,22.148-27.762,14.185-43.657c-2.544-5.076-2.524-10.888,0.054-15.946c2.577-5.059,7.268-8.491,12.869-9.416    c17.541-2.899,29.645-19.559,26.981-37.138c-0.851-5.613,0.964-11.134,4.979-15.148c4.016-4.014,9.539-5.829,15.149-4.979    c17.576,2.658,34.239-9.44,37.137-26.981c0.926-5.602,4.358-10.292,9.417-12.87c5.06-2.577,10.872-2.596,15.946-0.053    c15.895,7.967,35.48,1.602,43.656-14.185c2.611-5.042,7.325-8.442,12.933-9.33c5.603-0.889,11.142,0.889,15.183,4.876    c12.656,12.488,33.247,12.488,45.902,0c4.042-3.988,9.583-5.766,15.183-4.877c5.607,0.888,10.321,4.289,12.933,9.33    c8.179,15.788,27.764,22.149,43.657,14.186c5.075-2.543,10.888-2.524,15.944,0.053c5.06,2.577,8.492,7.269,9.418,12.87    c2.898,17.541,19.55,29.642,37.137,26.981c5.614-0.851,11.136,0.964,15.149,4.979c4.015,4.015,5.829,9.536,4.979,15.148    c-2.664,17.578,9.44,34.238,26.981,37.138c5.602,0.925,10.292,4.357,12.869,9.416c2.578,5.059,2.598,10.871,0.054,15.946    c-7.965,15.895-1.602,35.479,14.186,43.656c5.041,2.611,8.442,7.325,9.33,12.933c0.889,5.607-0.889,11.142-4.877,15.182    C479.407,245.704,479.407,266.296,491.893,278.952z" fill="#ffffff" data-original="#000000" style=""/>
	</g>
</g>
<g xmlns="http://www.w3.org/2000/svg">
	<g>
		<path d="M390.742,97.749c-39.659-33.835-90.282-51.398-142.543-49.471c-52.556,1.943-101.991,23.507-139.203,60.718    c-37.211,37.211-58.774,86.648-60.718,139.203c-1.933,52.261,15.636,102.884,49.471,142.542c1.484,1.739,3.59,2.632,5.71,2.632    c1.721,0,3.451-0.589,4.864-1.794c3.15-2.688,3.526-7.422,0.838-10.573c-31.389-36.791-47.686-83.759-45.893-132.253    c1.804-48.759,21.81-94.626,56.336-129.151c34.524-34.525,80.39-54.531,129.15-56.335c48.49-1.797,95.463,14.505,132.252,45.893    c3.153,2.689,7.886,2.313,10.574-0.838C394.268,105.171,393.893,100.437,390.742,97.749z" fill="#ffffff" data-original="#000000" style=""/>
	</g>
</g>
<g xmlns="http://www.w3.org/2000/svg">
	<g>
		<path d="M414.252,121.259c-2.689-3.15-7.42-3.528-10.575-0.838c-3.15,2.688-3.526,7.422-0.838,10.573    c31.389,36.791,47.686,83.759,45.894,132.253c-1.804,48.759-21.81,94.626-56.336,129.151    c-34.524,34.525-80.391,54.532-129.15,56.335c-48.505,1.791-95.464-14.505-132.252-45.893c-3.153-2.689-7.887-2.313-10.574,0.838    c-2.688,3.151-2.313,7.885,0.838,10.573c37.687,32.152,85.27,49.615,134.755,49.615c2.591,0,5.188-0.048,7.788-0.144    c52.556-1.943,101.991-23.507,139.203-60.718c37.211-37.211,58.774-86.648,60.718-139.203    C465.656,211.54,448.087,160.917,414.252,121.259z" fill="#ffffff" data-original="#000000" style=""/>
	</g>
</g>
<g xmlns="http://www.w3.org/2000/svg">
	<g>
		<path d="M190.254,192.634c-4.143,0-7.5,3.358-7.5,7.5v80.452l-41.904-83.806c-1.556-3.112-5.042-4.746-8.432-3.945    c-3.385,0.799-5.776,3.821-5.776,7.299v112.222c0,4.142,3.357,7.5,7.5,7.5s7.5-3.358,7.5-7.5v-80.452l41.904,83.806    c1.291,2.583,3.915,4.147,6.706,4.147c0.571,0,1.149-0.066,1.726-0.202c3.385-0.799,5.776-3.821,5.776-7.299V200.134    C197.754,195.992,194.397,192.634,190.254,192.634z" fill="#ffffff" data-original="#000000" style=""/>
	</g>
</g>
<g xmlns="http://www.w3.org/2000/svg">
	<g>
		<path d="M270.412,304.856h-40.596v-41.112h24.563c4.143,0,7.5-3.358,7.5-7.5c0-4.142-3.357-7.5-7.5-7.5h-24.563v-41.112h40.596    c4.143,0,7.5-3.358,7.5-7.5c0-4.142-3.357-7.5-7.5-7.5h-48.095c-4.143,0-7.5,3.358-7.5,7.5v112.222c0,4.142,3.357,7.5,7.5,7.5    h48.095c4.143,0,7.5-3.358,7.5-7.5C277.912,308.214,274.555,304.856,270.412,304.856z" fill="#ffffff" data-original="#000000" style=""/>
	</g>
</g>
<g xmlns="http://www.w3.org/2000/svg">
	<g>
		<path d="M392.221,192.801c-4.04-0.866-8.036,1.711-8.905,5.762l-16.714,77.999l-16.713-77.999    c-0.741-3.458-3.798-5.929-7.334-5.929s-6.593,2.471-7.334,5.929l-16.714,77.999l-16.713-77.999    c-0.868-4.051-4.855-6.629-8.905-5.762c-4.051,0.868-6.63,4.855-5.763,8.905l24.047,112.222c0.741,3.458,3.798,5.929,7.334,5.929    s6.593-2.471,7.334-5.929l16.714-77.999l16.713,77.999c0.741,3.458,3.798,5.929,7.334,5.929s6.593-2.471,7.334-5.929    l24.048-112.222C398.851,197.656,396.272,193.669,392.221,192.801z" fill="#ffffff" data-original="#000000" style=""/>
	</g>
</g>
<g xmlns="http://www.w3.org/2000/svg">
</g>
<g xmlns="http://www.w3.org/2000/svg">
</g>
<g xmlns="http://www.w3.org/2000/svg">
</g>
<g xmlns="http://www.w3.org/2000/svg">
</g>
<g xmlns="http://www.w3.org/2000/svg">
</g>
<g xmlns="http://www.w3.org/2000/svg">
</g>
<g xmlns="http://www.w3.org/2000/svg">
</g>
<g xmlns="http://www.w3.org/2000/svg">
</g>
<g xmlns="http://www.w3.org/2000/svg">
</g>
<g xmlns="http://www.w3.org/2000/svg">
</g>
<g xmlns="http://www.w3.org/2000/svg">
</g>
<g xmlns="http://www.w3.org/2000/svg">
</g>
<g xmlns="http://www.w3.org/2000/svg">
</g>
<g xmlns="http://www.w3.org/2000/svg">
</g>
<g xmlns="http://www.w3.org/2000/svg">
</g>
</g></svg>
